<svg xmlns="http://www.w3.org/2000/svg" viewBox="0 0 500 139.85">
  <title>Teamfight Tactics Logo</title>
  <g fill="#FDF4EE">
    <path class="cls-1" d="M291,76.75h16.24v62.13H291Z"/>
    <path class="cls-1" d="M291,.18h16.24V62.31H291Z"/>
    <path class="cls-1" d="M376.17,116.76c-2.8,14-13.21,23.21-30.34,23.09-18.29-.13-31.25-13.22-31.25-32s13-32,31.25-32c15.79,0,26.16,8.7,29.85,21.92H359c-2.64-4.09-7-6.48-12.58-6.48-9.14,0-15.26,6.57-15.26,16.6s6.12,16.6,15.26,16.6c6.1,0,10.83-2.9,13.31-7.65Z"/>
    <path class="cls-1" d="M410.9,100.62c18,4.5,26.31,7.81,26.31,19.36s-7.78,19.87-27.65,19.87c-20.06,0-27.78-10.32-27.78-23.09H397.5c0,6.07,4,9.65,12.06,9.65,6.19,0,10.61-2.23,10.61-5.5,0-3-4.95-4.37-12-6.27-16.93-4.54-24.65-8.57-24.65-20,0-9.13,6.09-18.9,26.07-18.9s25.66,9.77,25.66,20.33H419.6c0-3.91-2.35-7-10-7s-9.3,2.9-9.3,5.33c0,3.1,3.63,4.42,10.64,6.17"/>
    <path class="cls-1" d="M117.7,76.74,111.18,91.3H95.64v47.58H79.32V91.3H60.79V76.74Z"/>
    <path class="cls-1" d="M227.52,116.76c-2.8,14-13.2,23.21-30.34,23.09-18.29-.13-31.24-13.22-31.24-32s12.95-32,31.24-32c15.79,0,26.17,8.7,29.85,21.92H210.37c-2.63-4.09-7.05-6.48-12.57-6.48-9.15,0-15.27,6.57-15.27,16.6s6.12,16.6,15.27,16.6c6.1,0,10.82-2.9,13.31-7.65Z"/>
    <path class="cls-1" d="M377.12,32.63V62.31l-13.83-2.43C358.11,62.82,352.94,64,345.77,64c-18.25,0-31.19-13.2-31.19-32S327.52,0,345.77,0c15.62,0,25.93,8.53,29.69,21.53H358.71a14.39,14.39,0,0,0-12.32-6.11c-9.13,0-15.24,6.55-15.24,16.57s6.11,16.56,15.24,16.56c6.73,0,14.79-4,14.79-15.95h15.95Z"/>
    <path class="cls-1" d="M77,14.74v9.78h24.46L95,38.73H77v9h26.12L96.54,62.31H60.79V21.24l2.92-6.5H43v62l-16.32-3v-59H6.53L0,.18H103.07V14.74Z"/>
    <path class="cls-1" d="M140.71.18H126.56l3,7.26L104.92,62.31h16.62L123.7,57l24-4.56L152,62.31h16.6ZM129.82,42.29l-.08,0,6.66-16.24,5.95,13.85Z"/>
    <path class="cls-1" d="M257.18,14.74v9.78h24.45l-6.37,14.21H257.18V62.31H241V.18h42.27V14.74Z"/>
    <path class="cls-1" d="M283.29,76.74V91.3H264.76v47.58H248.44V91.3H232.91l-6.53-14.56Z"/>
    <path class="cls-1" d="M500,.18l-6.52,14.55H473.3v59.1L457,76.74v-62H436.06L439,22V62.31H422.73V36.72l-20.94,4V62.31H385.55V.18h16.24V26.49l20.94-4V.18Z"/>
    <path class="cls-1" d="M233.31.18V62.31H217.42V30.69L203.5,47.22h-1.16L188.5,30.69V62.31h-16V.18h9.33L203,26.9,224.64.18Z"/>
    <path class="cls-1" d="M140.42,76.75H126.27l3,7.25-24.61,54.88h16.61l2.16-5.27,24-4.56,4.23,9.83h16.6Zm-10.9,42.11-.08,0,6.66-16.25,6,13.86Z"/>
    <path class="cls-1" d="M434.44,76.74v.71h1.38v3.79h.87V77.45h1.37v-.71Z"/>
    <path class="cls-1" d="M442.7,76.74l-1.23,3.19-1.22-3.19H439v4.5h.81V77.73h0l1.34,3.51h.61l1.34-3.51h0v3.51H444v-4.5Z"/>
  </g>
</svg>